<?xml version="1.0" standalone="no"?>
<!DOCTYPE svg PUBLIC "-//W3C//DTD SVG 20010904//EN"
 "http://www.w3.org/TR/2001/REC-SVG-20010904/DTD/svg10.dtd">
<svg version="1.0" xmlns="http://www.w3.org/2000/svg"
 width="384.000000pt" height="384.000000pt" viewBox="0 0 384.000000 384.000000"
 preserveAspectRatio="xMidYMid meet">
<metadata>
Created by potrace 1.15, written by Peter Selinger 2001-2017
</metadata>
<g transform="translate(0.000000,384.000000) scale(0.100000,-0.100000)"
fill="#ffffff" stroke="none">
<path d="M1515 3833 c-110 -29 -238 -132 -287 -233 -53 -109 -53 -109 -53
-767 l0 -613 -290 0 c-265 0 -294 -2 -332 -20 -55 -25 -55 -42 1 -116 24 -33
313 -327 642 -655 619 -616 656 -650 731 -649 74 2 109 33 781 705 662 662
671 674 580 715 -39 18 -68 20 -333 20 l-290 0 0 613 c0 475 -3 623 -13 662
-36 136 -127 248 -248 306 l-69 34 -400 2 c-220 0 -409 -1 -420 -4z"/>
<path d="M0 694 l0 -345 32 -77 c45 -107 133 -195 240 -240 l77 -32 1571 0
1571 0 77 32 c107 45 195 133 240 240 l32 77 0 345 0 346 -150 0 -150 0 0
-317 c0 -300 -1 -320 -20 -351 -11 -18 -34 -41 -52 -52 -33 -20 -54 -20 -1548
-20 -1494 0 -1515 0 -1548 20 -18 11 -41 34 -52 52 -19 31 -20 51 -20 351 l0
317 -150 0 -150 0 0 -346z"/>
</g>
</svg>
