<?xml version="1.0" standalone="no"?>
<!DOCTYPE svg PUBLIC "-//W3C//DTD SVG 20010904//EN"
 "http://www.w3.org/TR/2001/REC-SVG-20010904/DTD/svg10.dtd">
<svg version="1.0" xmlns="http://www.w3.org/2000/svg"
 width="384.000000pt" height="384.000000pt" viewBox="0 0 384.000000 384.000000"
 preserveAspectRatio="xMidYMid meet">
<metadata>
Created by potrace 1.15, written by Peter Selinger 2001-2017
</metadata>
<g transform="translate(0.000000,384.000000) scale(0.100000,-0.100000)"
fill="#D4AF37" stroke="none">
<path d="M2435 3809 c-331 -31 -641 -151 -806 -311 -228 -222 -190 -499 96
-703 322 -229 901 -304 1383 -179 325 85 571 264 632 461 25 81 25 134 1 212
-107 344 -693 577 -1306 520z"/>
<path d="M1483 2820 c2 -164 2 -166 34 -230 38 -76 104 -155 171 -202 26 -19
92 -49 147 -67 55 -18 152 -59 215 -91 78 -40 139 -64 190 -74 356 -71 775
-35 1066 91 221 96 346 201 418 353 30 63 31 70 33 225 l3 160 -23 -75 c-12
-41 -31 -88 -42 -105 -119 -185 -359 -322 -689 -391 -95 -20 -162 -27 -313
-31 -231 -7 -367 6 -548 52 -233 59 -393 141 -515 264 -80 81 -117 143 -137
231 -11 51 -12 42 -10 -110z"/>
<path d="M3743 2497 c-44 -206 -259 -384 -583 -480 -196 -59 -388 -82 -613
-74 l-158 6 21 -29 c31 -44 78 -148 85 -190 8 -45 19 -50 120 -50 514 0 978
200 1109 480 28 61 31 74 34 200 5 178 1 215 -15 137z"/>
<path d="M990 2209 c-128 -10 -286 -41 -403 -80 -267 -88 -446 -221 -526 -388
-31 -67 -35 -84 -35 -156 0 -73 4 -89 37 -160 146 -306 676 -504 1242 -464
457 32 837 214 957 457 31 62 33 74 33 167 0 87 -3 107 -26 155 -120 251 -490
434 -954 470 -135 11 -175 11 -325 -1z"/>
<path d="M3742 2054 c-63 -306 -521 -537 -1087 -549 l-150 -3 1 -26 c0 -14 1
-71 2 -126 l2 -100 143 0 c534 1 995 222 1089 523 15 50 18 86 16 201 l-3 141
-13 -61z"/>
<path d="M3737 1604 c-78 -305 -546 -533 -1096 -534 l-144 0 7 -37 c3 -21 6
-80 6 -132 l0 -94 173 6 c501 17 902 196 1034 464 37 75 38 79 41 212 5 181 1
202 -21 115z"/>
<path d="M20 1255 c0 -185 24 -267 107 -367 151 -184 457 -317 823 -359 146
-16 424 -7 568 20 362 68 639 229 743 432 34 68 32 53 42 312 4 91 -7 119 -15
42 -9 -74 -54 -153 -137 -236 -156 -156 -403 -261 -718 -305 -178 -24 -495
-15 -659 20 -290 61 -544 193 -648 334 -44 60 -86 149 -86 182 0 14 -5 32 -10
40 -7 10 -10 -28 -10 -115z"/>
<path d="M2296 939 c-2 -8 -7 -32 -11 -53 -16 -94 -93 -203 -202 -286 -365
-276 -1049 -341 -1563 -149 -143 54 -250 119 -342 210 -79 78 -138 175 -138
229 0 14 -5 32 -10 40 -17 26 -12 -237 6 -305 91 -350 698 -597 1315 -535 449
46 793 219 912 460 31 63 32 69 37 230 6 162 5 187 -4 159z"/>
</g>
</svg>
