<?xml version="1.0" standalone="no"?>
<!DOCTYPE svg PUBLIC "-//W3C//DTD SVG 20010904//EN"
 "http://www.w3.org/TR/2001/REC-SVG-20010904/DTD/svg10.dtd">
<svg version="1.0" xmlns="http://www.w3.org/2000/svg"
 width="384.000000pt" height="384.000000pt" viewBox="0 0 384.000000 384.000000"
 preserveAspectRatio="xMidYMid meet">
<metadata>
Created by potrace 1.15, written by Peter Selinger 2001-2017
</metadata>
<g transform="translate(0.000000,384.000000) scale(0.100000,-0.100000)"
fill="#D4AF37" stroke="none">
<path d="M1202 3343 c-18 -9 -43 -30 -55 -47 -21 -30 -22 -40 -22 -256 0 -217
1 -226 22 -256 42 -58 69 -64 293 -64 224 0 251 6 293 64 21 30 22 39 22 256
0 217 -1 226 -22 256 -42 58 -68 64 -295 64 -166 0 -209 -3 -236 -17z"/>
<path d="M480 3040 l0 -160 240 0 240 0 0 160 0 160 -240 0 -240 0 0 -160z"/>
<path d="M1920 3040 l0 -160 720 0 720 0 0 160 0 160 -720 0 -720 0 0 -160z"/>
<path d="M2162 2223 c-18 -9 -43 -30 -55 -47 -21 -30 -22 -40 -22 -256 0 -217
1 -226 22 -256 42 -58 69 -64 293 -64 224 0 251 6 293 64 21 30 22 39 22 256
0 217 -1 226 -22 256 -42 58 -68 64 -295 64 -166 0 -209 -3 -236 -17z"/>
<path d="M480 1920 l0 -160 720 0 720 0 0 160 0 160 -720 0 -720 0 0 -160z"/>
<path d="M2880 1920 l0 -160 240 0 240 0 0 160 0 160 -240 0 -240 0 0 -160z"/>
<path d="M1682 1103 c-18 -9 -43 -30 -55 -47 -21 -30 -22 -40 -22 -256 0 -217
1 -226 22 -256 42 -58 69 -64 293 -64 224 0 251 6 293 64 21 30 22 39 22 256
0 217 -1 226 -22 256 -42 58 -68 64 -295 64 -166 0 -209 -3 -236 -17z"/>
<path d="M480 800 l0 -160 480 0 480 0 0 160 0 160 -480 0 -480 0 0 -160z"/>
<path d="M2400 800 l0 -160 480 0 480 0 0 160 0 160 -480 0 -480 0 0 -160z"/>
</g>
</svg>
