<?xml version="1.0" standalone="no"?>
<!DOCTYPE svg PUBLIC "-//W3C//DTD SVG 20010904//EN"
 "http://www.w3.org/TR/2001/REC-SVG-20010904/DTD/svg10.dtd">
<svg version="1.0" xmlns="http://www.w3.org/2000/svg"
 width="384.000000pt" height="384.000000pt" viewBox="0 0 384.000000 384.000000"
 preserveAspectRatio="xMidYMid meet">
<metadata>
Created by potrace 1.15, written by Peter Selinger 2001-2017
</metadata>
<g transform="translate(0.000000,384.000000) scale(0.100000,-0.100000)"
fill="#ffffff" stroke="none">
<path d="M1876 3097 c-66 -175 -226 -579 -252 -638 l-25 -56 -480 -79 c-263
-43 -478 -82 -476 -86 1 -4 143 -113 316 -242 l314 -236 324 0 323 0 0 -243 0
-242 396 -238 c218 -131 399 -235 402 -233 2 3 -31 219 -75 480 l-79 474 318
239 c175 131 318 240 318 243 0 3 -216 41 -479 84 l-479 80 -158 398 c-88 219
-161 398 -164 398 -3 0 -22 -46 -44 -103z"/>
<path d="M960 1520 l0 -80 400 0 400 0 0 80 0 80 -400 0 -400 0 0 -80z"/>
<path d="M960 1200 l0 -80 400 0 400 0 0 80 0 80 -400 0 -400 0 0 -80z"/>
<path d="M960 880 l0 -80 400 0 400 0 0 80 0 80 -400 0 -400 0 0 -80z"/>
</g>
</svg>
